Coordinates
nRows=140
nColumns=2
inDegrees=yes
endheader
time	ankle_angle_r	
2.93448	  0.042334	
3.00605	 -0.045776	
3.07762	 -0.007717	
3.14919	 -0.091553	
3.22077	  0.021968	
3.29234	 -0.030518	
3.36391	 -0.169033	
3.43548	 -0.071395	
3.50706	 -0.050822	
3.57863	  0.009944	
3.6502	  0.004213	
3.72177	  0.122070	
3.79335	 -0.049157	
3.86492	 -0.061035	
3.93649	 -0.043227	
4.00806	 -0.017392	
4.07964	 -0.076294	
4.15121	 -0.083273	
4.22278	  0.001770	
4.29435	  0.084158	
4.36593	 -0.030518	
4.4375	 -0.030518	
4.50907	 -0.106812	
4.58065	  0.007032	
4.65222	 -0.076294	
4.72379	 -0.080349	
4.79536	 -0.063479	
4.86694	 -0.061035	
4.93851	  0.015259	
5.01008	 -0.055252	
5.08165	  0.072186	
5.15323	  0.005368	
5.2248	 -0.030518	
5.29637	  0.009903	
5.36794	 -0.056292	
5.43952	  0.039588	
5.51109	 -0.041449	
5.58266	 -0.056916	
5.65423	  0.061035	
5.72581	 -0.034221	
5.79738	  0.076294	
5.86895	  0.049064	
5.94052	  0.088473	
6.0121	  0.051519	
6.08367	  0.040450	
6.15524	  0.111722	
6.22681	  0.087058	
6.29839	  0.041698	
6.36996	 -0.028686	
6.44153	  0.120447	
6.5131	  0.030518	
6.58468	 -0.076294	
6.65625	  0.027520	
6.72782	  0.032100	
6.7994	  0.075128	
6.87097	 -0.045026	
6.94254	  0.060701	
7.01411	  0.015300	
7.08569	 -0.091055	
7.15726	 -0.061035	
7.22883	 -0.000665	
7.3004	  0.031391	
7.37198	 -0.152588	
7.44355	 -0.063613	
7.51512	 -0.076294	
7.58669	 -0.074589	
7.65827	 -0.026691	
7.72984	 -0.058914	
7.80141	  0.004659	
7.87298	  0.007612	
7.94456	 -0.076294	
8.01613	 -0.005907	
8.0877	  0.018420	
8.15927	 -0.052515	
8.23085	 -0.034095	
8.30242	  0.034420	
8.37399	 -0.041783	
8.44556	  0.000000	
8.51714	 -0.034927	
8.58871	  0.025900	
8.66028	  0.045776	
8.73185	  0.020292	
8.80343	 -0.025742	
8.875	  0.097002	
8.94657	  0.101154	
9.01815	  0.085687	
9.08972	  0.036591	
9.16129	  0.061035	
9.23286	 -0.082784	
9.30444	 -0.074431	
9.37601	 -0.013811	
9.44758	 -0.001031	
9.51915	 -0.084846	
9.59073	 -0.038047	
9.6623	 -0.000217	
9.73387	 -0.000633	
9.80544	 -0.083399	
9.87702	  0.000000	
9.94859	 -0.030518	
10.0202	 -0.008778	
10.0917	 -0.082567	
10.1633	  0.033453	
10.2349	  0.000000	
10.3065	 -0.106812	
10.378	 -0.122070	
10.4496	 -0.157381	
10.5212	 -0.137329	
10.5927	 -0.173472	
10.6643	 -0.173888	
10.7359	 -0.124414	
10.8075	 -0.152588	
10.879	 -0.163862	
10.9506	 -0.190811	
11.0222	 -0.083431	
11.0937	 -0.144050	
11.1653	 -0.155740	
11.2369	 -0.100922	
11.3085	 -0.066508	
11.38	 -0.076294	
11.4516	 -0.180785	
11.5232	 -0.089440	
11.5948	 -0.093457	
11.6663	 -0.123767	
11.7379	 -0.123559	
11.8095	 -0.153868	
11.881	 -0.122070	
11.9526	 -0.168711	
12.0242	 -0.167190	
12.0958	 -0.106812	
12.1673	 -0.137810	
12.2389	 -0.137297	
12.3105	 -0.137329	
12.3821	 -0.075910	
12.4536	 -0.136737	
12.5252	 -0.108411	
12.5968	 -0.061035	
12.6683	 -0.062251	
12.7399	 -0.058187	
12.8115	 -0.030518	
12.8831	 -0.013419	
